<svg version="1.1" id="Layer_1" xmlns="http://www.w3.org/2000/svg" xmlns:xlink="http://www.w3.org/1999/xlink" x="0px" y="0px"
	 width="89.689px" height="38.979px" viewBox="0 0 89.689 38.979" style="enable-background:new 0 0 89.689 38.979;"
	 xml:space="preserve">
<g>
	<path d="M13.12,1.34c1.541,0,2.892,0.207,4.052,0.62c1.16,0.414,2.126,0.964,2.896,1.65c0.771,0.687,1.351,1.475,1.741,2.366
		c0.39,0.891,0.585,1.813,0.585,2.768c0,0.894-0.174,1.779-0.523,2.654c-0.349,0.876-0.874,1.683-1.576,2.422
		c-0.702,0.739-1.587,1.377-2.656,1.916c-1.068,0.539-2.323,0.917-3.763,1.136c-0.027,0.667-0.05,1.278-0.068,1.834
		c-0.009,0.237-0.019,0.475-0.027,0.712c-0.009,0.237-0.016,0.454-0.021,0.65c-0.005,0.196-0.009,0.367-0.014,0.513
		c-0.005,0.146-0.007,0.247-0.007,0.301c-0.019,0.639-0.094,1.302-0.227,1.988c-0.133,0.686-0.325,1.356-0.577,2.011
		c-0.251,0.654-0.559,1.275-0.92,1.861s-0.782,1.1-1.263,1.541c-0.481,0.44-1.019,0.791-1.613,1.05
		c-0.595,0.259-1.245,0.389-1.95,0.389c-0.748,0-1.415-0.193-2.003-0.581c-0.588-0.387-1.103-0.908-1.545-1.563
		c-0.442-0.656-0.816-1.411-1.121-2.267c-0.306-0.856-0.554-1.75-0.745-2.684s-0.331-1.873-0.417-2.82
		c-0.087-0.947-0.13-1.839-0.13-2.677c0-1.438,0.132-2.827,0.397-4.166c0.265-1.339,0.644-2.593,1.137-3.764
		c0.493-1.17,1.091-2.238,1.794-3.203c0.703-0.965,1.495-1.794,2.376-2.486c0.881-0.692,1.84-1.227,2.877-1.605
		S11.951,1.34,13.12,1.34z M4.895,16.78c0,0.374,0.002,0.878,0.007,1.512c0.004,0.634,0.029,1.312,0.075,2.032
		c0.045,0.721,0.118,1.451,0.219,2.189c0.1,0.739,0.248,1.407,0.444,2.005c0.196,0.598,0.442,1.086,0.738,1.464
		c0.296,0.378,0.667,0.568,1.114,0.568c0.465,0,0.861-0.162,1.189-0.486c0.328-0.324,0.602-0.744,0.82-1.26s0.392-1.1,0.52-1.752
		c0.127-0.653,0.223-1.308,0.287-1.965c0.063-0.657,0.104-1.285,0.123-1.882c0.018-0.598,0.027-1.107,0.027-1.527v-0.644
		c-0.75-0.296-1.34-0.556-1.77-0.779C8.26,16.032,7.937,15.816,7.72,15.61c-0.217-0.206-0.354-0.423-0.414-0.651
		c-0.059-0.229-0.088-0.496-0.088-0.8c0-0.168,0.004-0.335,0.014-0.499c0.009-0.164,0.034-0.309,0.074-0.436s0.1-0.229,0.176-0.309
		c0.077-0.08,0.183-0.12,0.319-0.12c0.09,0,0.174,0.019,0.25,0.057c0.077,0.038,0.174,0.09,0.292,0.157
		c0.298,0.17,0.569,0.311,0.813,0.419s0.452,0.197,0.624,0.263c0.199,0.076,0.379,0.133,0.542,0.171c0-0.12,0.002-0.357,0.007-0.712
		c0.004-0.354,0.032-0.76,0.083-1.216c0.051-0.456,0.136-0.933,0.255-1.431c0.12-0.497,0.294-0.953,0.524-1.368
		c0.229-0.415,0.528-0.758,0.896-1.029c0.368-0.272,0.823-0.408,1.365-0.408c0.164,0,0.333,0.016,0.506,0.048
		c0.173,0.032,0.33,0.091,0.471,0.179c0.142,0.087,0.26,0.204,0.355,0.35s0.144,0.334,0.144,0.563c0,0.064-0.002,0.108-0.007,0.131
		c-0.005,0.023-0.007,0.053-0.007,0.09l-0.832,3.558l-0.123,1.094c0.891-0.139,1.659-0.36,2.304-0.665
		c0.646-0.305,1.18-0.665,1.603-1.081c0.423-0.415,0.736-0.873,0.941-1.371s0.307-1.011,0.307-1.537
		c0-0.513-0.098-1.038-0.294-1.573c-0.195-0.536-0.535-1.023-1.017-1.463c-0.483-0.439-1.129-0.801-1.94-1.085
		c-0.811-0.284-1.831-0.426-3.06-0.426c-0.923,0-1.759,0.176-2.508,0.528c-0.75,0.352-1.417,0.829-2.001,1.432
		C7.708,7.075,7.202,7.779,6.772,8.583c-0.429,0.804-0.784,1.661-1.062,2.57c-0.279,0.909-0.484,1.846-0.617,2.81
		C4.961,14.927,4.895,15.866,4.895,16.78z"/>
	<path d="M25.621,17.913c0.374-0.505,0.793-1.049,1.258-1.629s1.087-1.25,1.866-2.008s1.417-1.304,1.914-1.636
		c0.497-0.333,0.964-0.499,1.401-0.499c0.109,0,0.232,0.021,0.369,0.063c0.137,0.042,0.267,0.118,0.39,0.229
		c0.123,0.112,0.226,0.267,0.308,0.467s0.123,0.458,0.123,0.773c0,0.631-0.087,1.247-0.26,1.846
		c-0.173,0.599-0.501,1.326-0.984,2.181c-0.483,0.854-0.809,1.593-0.978,2.215c-0.169,0.623-0.253,1.273-0.253,1.951
		c0,0.372,0.055,0.669,0.164,0.892c0.109,0.223,0.25,0.334,0.424,0.334c0.219,0,0.451-0.046,0.697-0.138
		c0.246-0.092,0.492-0.211,0.738-0.359s0.487-0.315,0.725-0.504c0.237-0.188,0.46-0.384,0.67-0.587
		c0.501-0.469,0.993-1.003,1.477-1.602l0.232,3.64c-0.164,0.12-0.372,0.27-0.622,0.45c-0.251,0.18-0.529,0.37-0.834,0.571
		c-0.306,0.201-0.636,0.405-0.991,0.61s-0.713,0.387-1.073,0.545c-0.36,0.159-0.72,0.289-1.08,0.392
		c-0.36,0.103-0.704,0.154-1.032,0.154c-0.513,0-0.958-0.128-1.336-0.384c-0.377-0.256-0.688-0.582-0.93-0.977
		c-0.243-0.396-0.424-0.827-0.546-1.296c-0.121-0.469-0.182-0.912-0.182-1.329c0-0.294,0.04-0.624,0.121-0.987
		c0.081-0.363,0.18-0.729,0.298-1.098c0.119-0.368,0.251-0.727,0.398-1.077c0.147-0.35,0.285-0.663,0.413-0.939
		c0.128-0.276,0.24-0.501,0.334-0.677c0.095-0.175,0.156-0.276,0.185-0.304l-0.287-0.042c-0.155,0.099-0.417,0.352-0.786,0.757
		s-0.786,0.917-1.251,1.535c-0.465,0.618-0.946,1.312-1.442,2.083c-0.497,0.771-0.946,1.566-1.347,2.387
		c-0.201,0.406-0.365,0.76-0.492,1.062c-0.128,0.302-0.253,0.545-0.376,0.729c-0.123,0.185-0.258,0.323-0.403,0.417
		c-0.146,0.094-0.333,0.141-0.561,0.141c-0.301,0-0.538-0.081-0.711-0.244c-0.173-0.163-0.306-0.378-0.396-0.648
		c-0.091-0.27-0.15-0.576-0.178-0.918c-0.027-0.342-0.041-0.693-0.041-1.053c0-0.625,0.007-1.445,0.021-2.458
		c0.014-1.013,0.057-2.136,0.13-3.37c0.073-1.232,0.206-2.51,0.399-3.832c0.193-1.322,0.385-2.637,0.577-3.945
		c0.191-1.308,0.477-2.553,0.855-3.735c0.379-1.182,0.84-2.223,1.383-3.122s1.18-1.614,1.91-2.143C26.758,0.265,27.598,0,28.547,0
		c0.492,0,0.896,0.073,1.21,0.22c0.314,0.146,0.565,0.353,0.752,0.619c0.187,0.266,0.316,0.584,0.39,0.956
		c0.073,0.372,0.109,0.786,0.109,1.245c0,0.682-0.096,1.437-0.287,2.265s-0.444,1.689-0.759,2.583s-0.672,1.798-1.073,2.714
		c-0.401,0.916-0.812,1.804-1.23,2.665c-0.419,0.861-0.832,1.674-1.237,2.438c-0.406,0.764-0.764,1.436-1.073,2.016L25.621,17.913z
		 M26.835,9.31c0.539-1.395,0.929-2.57,1.171-3.527c0.242-0.957,0.363-1.664,0.363-2.119c0-0.692-0.097-1.039-0.292-1.039
		c-0.237,0-0.588,0.387-1.053,1.162c-0.465,0.775-1.012,1.9-1.641,3.375c-0.155,0.501-0.299,1.021-0.431,1.558
		c-0.132,0.538-0.237,1.074-0.314,1.611c-0.077,0.536-0.154,1.063-0.229,1.581c-0.075,0.519-0.146,1.007-0.212,1.467
		c-0.2,1.082-0.353,2.141-0.459,3.176c0.247-0.574,0.516-1.198,0.808-1.873c0.292-0.674,0.58-1.342,0.863-2.003
		c0.283-0.661,0.55-1.285,0.801-1.873C26.462,10.219,26.67,9.72,26.835,9.31z"/>
	<path d="M44.023,15.723c0.264,0.529,0.462,1.087,0.595,1.675c0.132,0.588,0.198,1.251,0.198,1.989c0,0.538-0.06,1.08-0.178,1.627
		c-0.119,0.547-0.29,1.076-0.513,1.586c-0.224,0.511-0.497,0.989-0.82,1.436c-0.324,0.447-0.693,0.834-1.107,1.162
		c-0.415,0.328-0.868,0.588-1.36,0.779s-1.017,0.287-1.572,0.287c-0.802,0-1.488-0.175-2.058-0.526
		c-0.57-0.351-1.037-0.809-1.401-1.374c-0.365-0.565-0.631-1.203-0.8-1.914c-0.169-0.711-0.253-1.431-0.253-2.16
		c0-1.203,0.15-2.24,0.451-3.11c0.301-0.87,0.731-1.627,1.292-2.27s1.246-1.148,2.058-1.518c0.811-0.369,1.723-0.554,2.734-0.554
		c0.866,0,1.677,0.135,2.434,0.403c0.756,0.269,1.465,0.629,2.126,1.08c0.661,0.451,1.276,1.019,1.846,1.702
		c0.569,0.684,1.101,1.335,1.593,1.955l-0.26,1.928c-0.246-0.328-0.579-0.684-0.998-1.066c-0.419-0.383-0.864-0.807-1.333-1.271
		c-0.47-0.465-0.932-0.859-1.388-1.183c-0.456-0.323-0.848-0.595-1.176-0.813L44.023,15.723z M39.799,23.639
		c0.31,0,0.61-0.157,0.902-0.472c0.292-0.314,0.547-0.711,0.766-1.189s0.394-1.057,0.526-1.736c0.132-0.679,0.198-1.283,0.198-1.812
		c0-0.419-0.032-0.809-0.096-1.169c-0.064-0.36-0.16-0.672-0.287-0.937c-0.128-0.264-0.292-0.474-0.492-0.629
		c-0.201-0.155-0.442-0.232-0.725-0.232c-0.374,0-0.729,0.16-1.066,0.479c-0.337,0.319-0.634,0.727-0.889,1.224
		c-0.255,0.497-0.456,1.046-0.602,1.647c-0.146,0.602-0.219,1.281-0.219,2.037c0,0.383,0.036,0.743,0.109,1.08
		c0.073,0.337,0.187,0.631,0.342,0.882c0.155,0.251,0.36,0.451,0.615,0.602C39.138,23.563,39.443,23.639,39.799,23.639z"/>
	<path d="M58.775,23.201c-0.876,0.511-1.657,0.957-2.341,1.34s-1.293,0.702-1.828,0.957c-0.534,0.255-1.008,0.447-1.424,0.574
		c-0.415,0.128-0.792,0.191-1.129,0.191c-0.689,0-1.296-0.209-1.822-0.629c-0.526-0.419-0.965-1.023-1.319-1.812
		c-0.354-0.788-0.619-1.743-0.795-2.864s-0.265-2.383-0.265-3.787c0-0.547,0.022-1.13,0.068-1.75
		c0.045-0.62,0.108-1.235,0.189-1.846c-0.275-0.041-0.489-0.079-0.64-0.114c-0.151-0.035-0.312-0.071-0.481-0.106
		c-0.17-0.036-0.385-0.073-0.647-0.114c-0.261-0.041-0.64-0.091-1.135-0.152c-0.22-0.03-0.39-0.088-0.509-0.174
		c-0.119-0.086-0.206-0.188-0.262-0.305c-0.055-0.117-0.087-0.238-0.096-0.365c-0.009-0.127-0.014-0.236-0.014-0.327
		c0-0.144,0.089-0.253,0.268-0.329s0.408-0.132,0.687-0.17c0.279-0.038,0.586-0.059,0.921-0.063
		c0.334-0.004,0.655-0.002,0.962,0.007c0.307,0.009,0.582,0.016,0.825,0.021c0.243,0.005,0.41-0.002,0.501-0.021
		c0.246-1.227,0.557-2.415,0.935-3.565c0.377-1.15,0.8-2.172,1.269-3.067s0.98-1.613,1.536-2.154
		c0.555-0.541,1.137-0.812,1.747-0.812c0.393,0,0.75,0.109,1.074,0.328c0.324,0.218,0.6,0.51,0.828,0.874s0.404,0.79,0.527,1.277
		c0.123,0.487,0.185,0.995,0.185,1.523c0,0.437-0.064,0.898-0.191,1.384c-0.128,0.486-0.301,0.981-0.52,1.485
		c-0.219,0.503-0.476,1.014-0.772,1.531s-0.609,1.03-0.937,1.538c0.083-0.03,0.219-0.036,0.411-0.018
		c0.191,0.019,0.412,0.031,0.663,0.039c0.25,0.007,0.521,0.015,0.813,0.022c0.292,0.007,0.574,0.016,0.848,0.024
		c0.273,0.009,0.528,0.019,0.766,0.027c0.237,0.009,0.433,0.019,0.588,0.027c0.182,0.01,0.314,0.112,0.396,0.304
		c0.082,0.193,0.123,0.437,0.123,0.73c0,0.341-0.091,0.618-0.274,0.832c-0.182,0.214-0.383,0.321-0.602,0.321h-5.256
		c-0.266,0.365-0.533,0.723-0.803,1.073c-0.27,0.351-0.52,0.668-0.749,0.95c-0.037,0.565-0.068,1.121-0.096,1.668
		c-0.009,0.237-0.019,0.481-0.027,0.731c-0.009,0.251-0.019,0.499-0.027,0.745c-0.009,0.246-0.016,0.483-0.021,0.711
		c-0.005,0.228-0.007,0.438-0.007,0.629c0,0.492,0.046,0.907,0.137,1.244c0.091,0.337,0.224,0.613,0.398,0.827
		c0.174,0.214,0.387,0.369,0.638,0.465c0.252,0.096,0.533,0.144,0.844,0.144c0.191,0,0.431-0.045,0.719-0.137
		c0.287-0.091,0.602-0.216,0.944-0.376c0.342-0.159,0.703-0.349,1.081-0.567c0.379-0.219,0.753-0.458,1.123-0.718
		c0.369-0.26,0.723-0.533,1.061-0.82s0.643-0.581,0.917-0.882V23.201z M54.4,5.888c0-0.1-0.007-0.211-0.021-0.333
		s-0.043-0.238-0.089-0.347c-0.045-0.109-0.117-0.2-0.213-0.272s-0.231-0.109-0.405-0.109c-0.238,0-0.478,0.208-0.721,0.625
		c-0.242,0.416-0.476,0.948-0.7,1.595c-0.224,0.647-0.435,1.359-0.631,2.138c-0.197,0.778-0.377,1.534-0.542,2.267
		c0.137,0.014,0.275,0.025,0.412,0.036c0.137,0.01,0.279,0.022,0.426,0.036c0.274-0.459,0.561-0.957,0.858-1.493
		s0.565-1.062,0.803-1.581c0.238-0.518,0.435-1.001,0.59-1.452C54.322,6.545,54.4,6.176,54.4,5.888z"/>
	<path d="M66.035,23.352c-0.328,0.301-0.736,0.622-1.224,0.964c-0.488,0.342-1.014,0.656-1.579,0.943
		c-0.565,0.287-1.142,0.526-1.729,0.718s-1.146,0.287-1.675,0.287c-0.474,0-0.873-0.066-1.196-0.198
		c-0.324-0.132-0.586-0.316-0.786-0.554c-0.201-0.237-0.344-0.526-0.431-0.868c-0.087-0.342-0.13-0.718-0.13-1.128
		c0-0.574,0.063-1.244,0.191-2.01c0.263-1.583,0.432-2.473,0.507-2.669c0.124-0.389,0.373-1.251,0.745-2.587
		c0.346-1.089,0.56-1.797,0.641-2.126c0.044-0.23,0.17-0.438,0.376-0.622c0.188-0.166,0.4-0.302,0.638-0.408
		c0.237-0.106,0.483-0.184,0.739-0.235c0.255-0.051,0.486-0.076,0.691-0.076c0.376,0,0.631,0.071,0.766,0.212
		c0.134,0.142,0.202,0.331,0.202,0.567c0,0.201-0.047,0.484-0.14,0.85c-0.094,0.366-0.201,0.784-0.32,1.252s-0.297,1.07-0.532,1.806
		c-0.235,0.736-0.396,1.364-0.481,1.883c-0.086,0.52-0.195,1.036-0.326,1.548c-0.131,0.513-0.196,0.979-0.196,1.397
		c0,0.41,0.045,0.736,0.137,0.977c0.091,0.242,0.278,0.362,0.561,0.362c0.328,0,0.692-0.114,1.094-0.342
		c0.401-0.228,0.807-0.503,1.217-0.827c0.41-0.323,0.811-0.658,1.203-1.005c0.392-0.346,0.738-0.643,1.039-0.889V23.352z
		 M59.924,9.004c0-0.211,0.045-0.451,0.137-0.717c0.091-0.267,0.239-0.518,0.444-0.752c0.205-0.234,0.479-0.432,0.82-0.593
		s0.768-0.242,1.278-0.242c0.319,0,0.62,0.037,0.902,0.11c0.282,0.074,0.528,0.187,0.738,0.338c0.209,0.151,0.376,0.352,0.499,0.6
		s0.185,0.543,0.185,0.883c0,0.313-0.05,0.616-0.15,0.911c-0.101,0.294-0.26,0.557-0.479,0.787s-0.495,0.417-0.827,0.559
		c-0.333,0.143-0.731,0.214-1.196,0.214c-0.802,0-1.395-0.191-1.777-0.573S59.924,9.639,59.924,9.004z"/>
	<path d="M64.258,26.778c0-0.045,0.011-0.323,0.034-0.831c0.022-0.509,0.072-1.187,0.148-2.032c0.076-0.846,0.164-1.823,0.264-2.933
		c0.1-1.109,0.24-2.278,0.422-3.508c0.182-1.229,0.396-2.491,0.643-3.784c0.246-1.293,0.54-2.552,0.879-3.777
		c0.339-1.225,0.729-2.38,1.166-3.464c0.438-1.084,0.928-2.033,1.473-2.845c0.544-0.812,1.152-1.454,1.822-1.926
		c0.67-0.472,1.405-0.708,2.206-0.708c0.309,0,0.634,0.053,0.976,0.16c0.341,0.107,0.652,0.28,0.934,0.52
		c0.282,0.24,0.516,0.557,0.703,0.952s0.28,0.881,0.28,1.458c0,0.537-0.087,1.153-0.26,1.849c-0.174,0.696-0.417,1.44-0.732,2.231
		c-0.314,0.792-0.685,1.615-1.111,2.47c-0.427,0.855-0.894,1.708-1.4,2.559s-1.039,1.688-1.597,2.511
		c-0.558,0.823-1.128,1.594-1.709,2.313l-0.027,0.218c0.192-0.08,0.336-0.132,0.432-0.155c0.096-0.024,0.197-0.036,0.302-0.036
		c0.127,0,0.229,0.01,0.308,0.03c0.078,0.02,0.149,0.042,0.213,0.066c0.063,0.024,0.129,0.046,0.198,0.066s0.151,0.03,0.249,0.03
		c0.902,0,1.7-0.107,2.393-0.321c0.692-0.213,1.276-0.452,1.75-0.716c0.556-0.3,1.039-0.65,1.449-1.051l-0.301,3.332
		c-0.602,0.332-1.23,0.589-1.887,0.773s-1.263,0.323-1.818,0.415c-0.647,0.101-1.298,0.166-1.952,0.193
		c0.352,0.601,0.669,1.224,0.952,1.869c0.245,0.555,0.466,1.176,0.667,1.863c0.2,0.687,0.3,1.38,0.3,2.081
		c0,0.082-0.012,0.254-0.037,0.519c-0.024,0.264-0.065,0.587-0.123,0.969s-0.138,0.805-0.243,1.269
		c-0.105,0.464-0.241,0.932-0.408,1.405s-0.37,0.93-0.608,1.372c-0.239,0.441-0.518,0.832-0.837,1.173
		c-0.319,0.341-0.687,0.616-1.102,0.825c-0.415,0.209-0.885,0.314-1.41,0.314c-0.499,0-0.933-0.114-1.304-0.341
		c-0.371-0.228-0.688-0.534-0.951-0.92s-0.482-0.836-0.659-1.349c-0.176-0.514-0.314-1.057-0.414-1.629
		c-0.1-0.572-0.17-1.156-0.21-1.751S64.258,27.333,64.258,26.778z M67.874,19.592c-0.037,0-0.079,0.104-0.125,0.312
		c-0.046,0.208-0.082,0.47-0.107,0.785c-0.025,0.315-0.061,0.764-0.107,1.345c-0.046,0.582-0.085,1.059-0.115,1.43
		c-0.03,0.372-0.055,0.724-0.073,1.057c-0.019,0.333-0.027,0.595-0.027,0.786c0,1.34,0.025,2.406,0.076,3.199
		s0.114,1.395,0.192,1.805s0.165,0.677,0.262,0.8c0.096,0.123,0.195,0.185,0.295,0.185c0.312,0,0.562-0.142,0.75-0.424
		c0.188-0.283,0.33-0.641,0.426-1.073c0.096-0.433,0.161-0.907,0.192-1.422c0.032-0.515,0.048-1.01,0.048-1.483
		c0-0.319-0.009-0.711-0.028-1.176c-0.018-0.465-0.046-0.967-0.083-1.505c-0.037-0.539-0.113-1.148-0.228-1.828
		c-0.116-0.68-0.277-1.19-0.485-1.533c-0.208-0.342-0.376-0.637-0.505-0.886C68.104,19.717,67.985,19.592,67.874,19.592z
		 M71.334,5.301c-0.537,1.21-0.978,2.361-1.323,3.453c-0.316,1.001-0.554,1.888-0.712,2.661s-0.271,1.454-0.338,2.04
		c-0.067,0.587-0.133,1.13-0.197,1.631c0.584-1.046,1.188-2.065,1.812-3.057c0.623-0.992,1.168-1.922,1.636-2.791
		C72.68,8.37,73.08,7.53,73.412,6.721s0.498-1.387,0.498-1.733c0-0.482-0.068-0.835-0.203-1.058
		c-0.135-0.223-0.361-0.334-0.676-0.334c-0.499,0-0.834,0.109-1.006,0.328C71.89,4.105,71.66,4.564,71.334,5.301z"/>
	<path d="M80.732,26.496l0.301-1.653c-0.492,0.433-1.005,0.783-1.538,1.049s-1.051,0.399-1.552,0.399
		c-0.438,0-0.864-0.089-1.278-0.267c-0.415-0.178-0.782-0.433-1.101-0.766c-0.319-0.333-0.574-0.738-0.766-1.217
		s-0.287-1.019-0.287-1.62c0-0.793,0.055-1.52,0.164-2.181c0.109-0.66,0.244-1.476,0.404-2.447s0.35-1.737,0.568-2.297
		s0.469-1.128,0.752-1.702c0.209-0.41,0.51-0.722,0.902-0.937c0.392-0.214,0.774-0.321,1.148-0.321c0.319,0,0.592,0.08,0.82,0.239
		c0.228,0.16,0.342,0.408,0.342,0.746c0,0.101-0.011,0.21-0.034,0.329s-0.06,0.246-0.114,0.383
		c-0.161,0.419-0.297,0.918-0.408,1.496s-0.258,1.349-0.443,2.312s-0.331,1.727-0.439,2.291c-0.108,0.564-0.162,1.068-0.162,1.51
		c0,0.23,0.016,0.454,0.048,0.67c0.032,0.217,0.089,0.41,0.171,0.581s0.191,0.309,0.328,0.414c0.137,0.106,0.31,0.159,0.52,0.159
		c0.337,0,0.643-0.147,0.916-0.44c0.273-0.294,0.51-0.647,0.711-1.06c0.2-0.414,0.362-0.84,0.485-1.281s0.203-0.808,0.239-1.102
		l1.096-5.113c0.063-0.301,0.191-0.574,0.383-0.82c0.182-0.237,0.397-0.439,0.644-0.608c0.247-0.168,0.502-0.294,0.767-0.376
		c0.265-0.082,0.516-0.123,0.753-0.123c0.283,0,0.521,0.062,0.712,0.185c0.192,0.124,0.288,0.317,0.288,0.582
		c0,0.082-0.014,0.178-0.041,0.288c-0.042,0.243-0.1,0.568-0.171,0.977c-0.072,0.409-0.153,0.874-0.244,1.396
		c-0.091,0.521-0.218,1.252-0.382,2.192c-0.164,0.941-0.296,1.697-0.398,2.27c-0.231,1.354-0.467,2.807-0.707,4.361
		c0.277-0.155,0.576-0.346,0.896-0.574c0.32-0.228,0.676-0.533,1.068-0.915c0.392-0.382,0.829-0.863,1.312-1.441
		c0.483-0.578,1.025-1.3,1.627-2.165l0.656,3.042c-0.164,0.281-0.374,0.566-0.629,0.855c-0.273,0.308-0.565,0.607-0.875,0.896
		c-0.456,0.417-0.784,0.697-0.984,0.842c-0.064,0.045-0.396,0.307-0.998,0.785c-0.183,0.155-0.786,0.574-1.811,1.257
		c-0.25,0.164-0.42,0.462-0.512,0.896c-0.092,0.433-0.199,1.237-0.319,2.412c-0.052,0.335-0.085,0.594-0.098,0.775
		c-0.055,0.435-0.108,0.85-0.158,1.245c-0.05,0.394-0.138,0.844-0.266,1.35s-0.277,0.971-0.45,1.396
		c-0.173,0.424-0.4,0.845-0.683,1.265c-0.282,0.419-0.594,0.777-0.935,1.074c-0.341,0.296-0.753,0.535-1.235,0.718
		c-0.482,0.182-1.01,0.273-1.583,0.273c-0.464,0-0.894-0.052-1.29-0.157c-0.396-0.104-0.757-0.266-1.085-0.484
		c-0.328-0.219-0.596-0.517-0.805-0.895c-0.209-0.378-0.333-0.822-0.369-1.332c-0.073-0.965,0.191-1.985,0.793-3.059
		c0.337-0.601,0.574-1.018,0.711-1.25c0.137-0.232,0.351-0.567,0.643-1.004c0.292-0.428,0.597-0.815,0.916-1.161
		c0.638-0.72,1.164-1.298,1.579-1.735C79.664,27.465,80.158,26.997,80.732,26.496z M80.781,29.792
		c-0.64,0.456-1.27,1.185-1.891,2.187c-0.621,1.002-1.114,2.023-1.479,3.062c-0.302,0.875-0.151,1.312,0.45,1.312
		c0.219,0,0.415-0.027,0.588-0.082c0.173-0.055,0.333-0.153,0.479-0.294c0.146-0.142,0.273-0.296,0.383-0.465
		c0.109-0.169,0.226-0.406,0.349-0.711c0.123-0.306,0.232-0.606,0.328-0.902c0.096-0.296,0.216-0.69,0.362-1.183
		c0.082-0.265,0.143-0.559,0.183-0.883s0.087-0.714,0.143-1.169C80.73,30.208,80.765,29.918,80.781,29.792z"/>
</g>
</svg>
